<svg width="346" height="239" viewBox="0 0 346 239" version="1.1" xmlns="http://www.w3.org/2000/svg" xmlns:xlink="http://www.w3.org/1999/xlink">
<title>Vector</title>
<desc>Created using Figma</desc>
<g id="Canvas" transform="translate(-92 180)">
<g id="Vector">
<use xlink:href="#path0_fill" transform="translate(92 -180)" fill="#977C55"/>
</g>
</g>
<defs>
<path id="path0_fill" d="M 294.361 194C 281.261 123.1 280.661 120.4 280.061 117.6C 279.761 116.1 279.461 114.6 277.461 104.1C 276.861 100.7 276.261 97.6 275.761 94.8C 273.761 83.1 272.761 77.8 269.461 77.9C 267.461 78 267.161 79.8 266.861 81.3C 266.861 81.6 266.761 81.8 266.761 82C 260.161 112.3 258.661 117.9 256.861 124.4C 255.861 128 254.761 132.1 252.561 141.1C 251.661 144.7 250.961 148.3 250.361 151.9C 249.461 156.7 248.561 161.6 247.161 166.4C 246.461 168.9 238.661 205 238.961 206.1C 239.561 207.9 240.061 208.2 240.361 208.2C 240.461 208.2 240.661 208.2 240.761 208.2C 243.361 208.2 243.561 206.8 244.561 200.2C 245.061 196.9 245.661 192.4 246.961 186.1L 246.961 185.9C 247.461 183.2 247.461 183.2 252.361 183.2C 253.961 183.2 255.961 183.2 258.561 183.1C 264.761 182.9 269.461 182.7 273.361 182.6C 286.961 182 286.961 182 287.461 184.7C 287.561 185 287.561 185.3 287.661 185.7L 288.261 188.3C 292.361 205.9 292.361 205.9 294.861 206.2C 295.361 206.3 295.661 205.7 296.161 204.5C 296.561 203.6 296.061 201.7 295.361 199C 295.061 197.4 294.661 195.7 294.361 194ZM 286.061 175.3C 286.261 176.4 286.361 177.1 286.061 177.5C 285.461 178.3 282.761 178.4 276.261 178.7C 274.161 178.8 271.661 178.9 268.761 179.1L 268.761 178.9L 264.661 179.1C 260.961 179.3 257.261 179.5 253.561 179.7L 253.361 179.7C 251.261 179.8 249.861 179.9 249.261 179.1C 247.861 177.5 249.461 171.3 253.661 154.9C 257.161 141.2 262.461 120.4 269.661 88.4C 269.761 88.1 269.961 87.8 270.261 87.5C 271.561 90.7 274.061 104.2 277.761 127.8C 277.961 129.2 278.161 130.2 278.161 130.6C 284.361 167.2 285.661 173.5 286.061 174.6C 285.961 174.8 286.061 175.1 286.061 175.3ZM 70.4611 185.3C 68.6611 196.3 62.1611 204.8 51.7611 209.9C 51.4611 210 51.1611 210.2 50.8611 210.3C 47.8611 211.8 43.0611 214.1 36.9611 214.1C 33.8611 214.1 30.4611 213.5 26.7611 211.9C 26.1611 211.6 25.3611 211.4 24.3611 211.1C 19.9611 209.7 12.4611 207.3 6.26111 196.8C -5.73889 176.2 2.16111 159.7 8.06111 151.7C 13.2611 144.6 19.6611 140 21.0611 140.3C 21.6611 140.4 22.1611 140.6 22.6611 140.8C 22.8611 140.9 23.0611 141 23.2611 141L 23.6611 141.1L 23.5611 141.4C 22.8611 143.2 20.8611 144.8 18.3611 146.8C 11.5611 152.2 1.36111 160.3 4.46111 182.7C 6.16111 195 15.8611 203.7 24.4611 207.7C 31.8611 211.2 39.1611 211.6 43.5611 208.9C 45.9611 207.4 47.9611 206.5 49.7611 205.7C 53.8611 203.9 57.1611 202.4 63.0611 194.2C 68.5611 186.6 67.5611 173.9 65.5611 167.1C 60.6611 150.6 52.0611 142.5 43.0611 134C 37.7611 129 32.2611 123.8 27.1611 116.6C 23.1611 111 21.3611 104.7 21.9611 98.6C 22.5611 93.1 25.0611 87.9 29.0611 84.1C 35.4611 78 47.3611 74.4 59.4611 84.2C 62.0611 86.3 63.1611 89.5 63.9611 92.6C 66.5611 101.8 60.4611 110.8 56.5611 113C 54.7611 114 53.9611 113.4 53.5611 113C 53.0611 112.5 52.8611 112.1 52.8611 111.6C 52.8611 110.9 53.4611 110.5 54.2611 109.6C 55.3611 108.6 56.9611 107.1 58.6611 104.4C 61.9611 99.2 61.2611 92.6 56.9611 87.4C 53.1611 82.9 46.2611 79.4 37.8611 82.9C 25.3611 88.5 24.0611 99.3 26.6611 107C 29.1611 114.3 29.6611 115.8 51.3611 136.9C 65.5611 150.6 73.0611 169.6 70.4611 185.3ZM 270.961 235L 271.361 235.2L 271.161 235.5C 270.861 235.9 270.661 236.3 270.561 236.5C 269.761 237.8 269.561 238.1 267.961 238.1C 267.761 238.1 267.661 238.1 267.461 238.1C 254.561 237.6 240.661 236.4 225.461 227.3C 217.861 222.7 194.061 202.9 185.361 172.7C 171.961 126.6 197.761 74.3 241.861 58.6C 260.161 52.1 270.461 52.9 272.661 54.9C 273.161 55.3 273.061 55.7 273.061 55.9C 272.961 56.2 272.661 56.6 271.761 56.8C 271.061 57 269.861 57 268.261 57.1C 261.461 57.5 247.461 58.2 231.861 67.2C 195.961 88 178.061 132.2 189.261 172.3C 193.761 188.5 205.061 202.9 213.761 212C 232.861 232.1 253.061 233.2 263.961 233.8C 267.161 234.2 269.661 234.4 270.961 235ZM 102.561 81C 101.161 80.6 100.361 80.7 99.8611 81.1C 99.2611 81.5 99.0611 82.2 98.8611 83.6C 98.8611 83.9 98.4611 157.2 99.6611 179.8C 100.161 188.8 99.5611 195.4 99.0611 199.8C 98.6611 204.2 98.4611 206.7 99.5611 207.8C 99.9611 208.2 100.561 208.4 101.261 208.4C 101.661 208.4 102.161 208.4 102.661 208.3C 106.161 207.7 122.061 201.4 130.861 184.4C 141.861 163.4 142.961 142.7 140.661 131.2C 136.761 111.7 126.861 87.2 102.561 81ZM 103.361 190.5C 103.161 186.8 102.961 184.3 102.861 182.1C 102.161 171.1 102.161 171.1 102.161 99.2L 102.161 88.9C 102.161 88.6 102.161 88.2 102.161 87.9C 102.161 86.6 102.161 85.5 102.561 85.2C 102.761 85 103.261 85 103.961 85.2C 127.961 92 143.261 128.8 135.361 161C 130.161 182.2 121.261 194.6 105.661 202.5C 104.861 202.9 103.961 203.3 103.761 203.2C 103.261 202.9 103.261 200.4 103.261 195.8C 103.261 194.4 103.261 192.8 103.261 190.9L 103.461 190.9L 103.361 190.5ZM 318.761 158.8C 317.461 156.5 317.461 156.5 319.561 155L 320.461 154.4C 331.661 146.2 337.861 141.7 344.061 122.7C 347.861 111.2 346.561 90.6 327.661 80.9C 323.061 78.5 317.961 78.1 312.861 79.6C 310.061 80.4 309.861 81.2 310.161 84C 310.861 90.3 310.461 105.4 310.161 117.6C 309.961 123.3 309.861 128.3 309.861 131.7C 309.861 134.8 310.261 201.9 311.061 203C 311.661 203.8 312.361 204.6 313.061 204.3C 314.661 203.7 314.561 198.3 313.961 181.2C 313.761 176.5 313.661 171.3 313.461 165.2L 313.361 164.9L 313.361 162.6C 313.361 159.1 313.361 159.1 313.661 158.6C 313.761 158.5 313.861 158.3 313.961 158.1C 314.061 158.1 314.061 158.2 314.161 158.2C 314.561 158.4 314.861 158.5 315.061 158.7C 315.161 158.9 323.961 176 340.661 202C 340.861 202.2 340.961 202.6 341.161 202.9C 341.561 203.8 342.061 204.8 342.961 205C 343.061 205 343.161 205 343.361 205C 343.761 205 344.161 204.8 344.561 204.5C 346.261 203.3 345.161 201.6 340.861 195.2C 336.661 188.8 329.461 178.2 318.761 158.8ZM 313.361 140.3C 313.361 134.7 313.361 130.7 313.361 127.6C 313.361 117.3 313.361 117.3 313.961 102.7C 314.161 99.2 314.361 94.8 314.561 89.3C 314.661 88.1 314.661 87.1 314.661 86.3C 314.661 82.5 314.661 82.5 319.761 82.4C 322.261 82.3 324.561 83 326.561 84.4C 339.561 93.5 343.561 102.3 341.361 117.2C 338.761 134.8 329.361 144 315.961 152.3C 315.061 152.9 314.361 153.1 314.061 152.9C 313.161 152.4 313.261 149.4 313.261 145.2C 313.261 143.9 313.261 142.5 313.261 140.9L 313.361 140.3ZM 180.061 205.7C 180.161 206 180.061 206.3 179.861 206.5C 179.261 207.3 177.261 207.4 175.261 207.5L 174.861 207.5C 165.561 207.8 161.661 208 159.661 208C 158.161 208 157.761 207.9 157.061 207.8C 156.561 207.7 156.061 207.6 154.961 207.5L 154.761 207.5C 152.961 207.3 152.161 207.2 151.661 206.7C 151.261 206.2 151.361 205.4 151.561 203.8C 151.761 202.2 152.061 199.8 152.061 196.1C 152.061 193.4 152.061 190.7 151.961 187.9C 151.961 184.7 151.861 181.4 151.861 178.2C 151.861 171.7 151.961 160.8 152.461 145.4C 152.461 144.9 152.461 144.6 152.461 144.5C 152.461 128 152.561 85 152.461 83.8C 152.461 82.8 152.561 82.1 153.061 81.6C 154.061 80.6 156.561 80.7 163.161 80.9C 165.361 81 167.961 81.1 171.161 81.1C 172.661 81.1 173.961 81.1 175.061 81.2C 179.761 81.3 181.061 81.3 181.961 82.4C 182.361 82.8 182.361 83.7 182.261 84.3C 182.161 84.6 182.061 84.9 181.861 85C 179.761 86.1 178.061 86 173.761 85.8C 170.761 85.7 166.161 85.5 159.161 85.6C 156.961 85.6 156.861 85.9 156.561 100.8C 156.561 102.7 156.461 104.8 156.461 107.1C 156.461 108.5 156.661 109.3 157.061 109.8C 157.561 110.3 158.461 110.5 159.961 110.4C 162.861 110.3 165.261 110.3 167.361 110.2C 176.861 109.9 178.561 109.9 178.661 111.7C 178.661 112.2 178.561 112.6 178.261 113C 177.261 114.1 174.761 114.3 173.061 114.3C 169.061 114.4 166.061 114.4 163.761 114.4C 159.561 114.4 157.661 114.4 157.061 115C 156.761 115.3 156.661 115.9 156.761 116.9C 156.861 120.1 156.661 123.4 156.561 126.6C 156.461 128.8 156.361 131.1 156.361 133.4C 156.261 139.6 156.361 145.9 156.361 152C 156.361 154.6 156.361 157.2 156.361 159.9L 156.361 160.3L 156.261 160.3L 156.261 181.7C 156.261 199.2 156.261 199.2 156.261 199.6L 156.261 199.8C 156.261 200.1 156.261 200.4 156.261 200.7C 156.361 204.3 156.361 204.3 166.261 204.1C 168.761 204 171.861 204 175.761 204C 178.361 203.7 179.661 203.8 180.061 205.7ZM 151.361 30.1C 147.961 30.7 144.061 31.1 141.061 28.5C 135.661 23.9 133.861 18.4 135.761 13.1C 138.561 5.6 148.561 0.1 159.561 0C 163.661 0 167.761 0.1 171.761 0.3C 174.961 0.4 178.261 0.6 181.461 0.6C 186.361 0.6 191.061 0.6 195.261 0.5C 206.361 0.4 210.261 0.4 210.561 1.5C 210.661 2 210.161 2.4 209.661 2.7C 208.561 3.3 187.661 3.8 187.361 3.8C 181.761 3.7 178.261 3.5 175.761 3.4C 172.261 3.2 170.961 3.2 168.661 3.6L 168.461 3.6C 166.661 4 166.661 4 166.161 22C 166.061 25.4 165.961 29.4 165.861 34.1C 165.661 41.5 165.661 46.8 165.561 50.7C 165.461 60 165.461 61.2 163.161 61.6L 163.061 61.6C 162.961 61.6 162.761 61.5 162.661 61.5C 160.261 59.4 162.661 6.2 162.661 5.7C 162.761 4.5 162.561 3.8 162.261 3.5C 161.961 3.2 161.261 3 160.261 3.1C 154.861 3.5 150.361 4.6 146.561 6.6C 139.661 10.2 138.461 15.7 139.661 19.8C 140.961 24.3 145.061 27.1 149.661 26.6C 150.561 26.5 151.461 26.4 152.661 26.3L 156.161 26L 155.061 27C 154.461 27.5 153.961 28 153.561 28.5C 152.761 29.3 152.061 29.9 151.361 30.1ZM 83.6611 95.9C 83.6611 96.6 83.3611 173 83.4611 181C 83.5611 187.2 83.7611 192.2 83.8611 196.2C 84.1611 204.7 84.2611 207.8 83.2611 208.7C 83.1611 208.8 82.9611 208.9 82.6611 208.9C 82.5611 208.9 82.4611 208.9 82.3611 208.9C 79.5611 208.3 79.6611 206.4 79.7611 204.6C 79.7611 204.3 79.7611 203.9 79.7611 203.6C 79.7611 193.1 79.7611 182.6 79.7611 172.1L 79.7611 162L 79.4611 162L 79.4611 161.6C 80.5611 102.6 80.0611 84 80.0611 83.9L 80.0611 83.8L 80.0611 83.7C 80.3611 82.7 81.3611 81.1 82.3611 81C 82.7611 81 83.2611 80.9 83.6611 81.3C 84.3611 81.9 84.2611 83.4 84.0611 86.5C 83.8611 88.8 83.6611 91.8 83.6611 95.9ZM 181.961 28.8C 180.761 30 180.961 33.4 181.461 40.7C 181.661 44.1 181.961 48.3 182.161 53.6C 182.261 55.1 181.761 56.2 180.961 56.7C 180.461 57 179.961 57 179.461 56.7C 178.561 56.2 177.961 54.8 177.961 52.9C 177.861 47.9 177.861 43.5 177.761 39.7C 177.461 17.9 177.461 15.2 178.261 14.4C 178.561 14.1 178.861 14.2 179.161 14.2C 179.261 14.2 179.361 14.2 179.461 14.2C 181.161 14.2 181.161 15.9 181.261 17C 181.261 17.3 181.261 17.5 181.261 17.8C 181.461 19.3 181.461 20.6 181.461 21.6C 181.461 23 181.461 23.9 181.861 24.3C 182.061 24.5 182.461 24.6 183.061 24.5L 184.461 24.4C 190.561 24.1 193.161 24 193.861 23.2C 194.261 22.8 194.161 22.2 194.161 21C 194.161 20.5 194.061 20.1 194.061 19.6C 193.961 18.4 193.861 17.2 194.061 16C 194.161 15.4 194.761 15 195.461 14.5C 195.761 14.3 195.961 14.2 196.161 14L 196.461 13.7L 196.661 14.1C 196.861 14.4 197.061 14.6 197.161 14.8C 197.861 15.7 197.861 15.7 197.861 25.5C 197.861 27.8 197.861 30.7 197.861 34.2L 198.461 34.2L 198.461 34.6C 198.461 39 198.461 42.4 198.461 45.1C 198.461 54.7 198.461 54.7 197.461 55.9C 197.261 56.1 197.061 56.3 196.861 56.7L 196.561 57.1L 196.261 56.7C 195.961 56.2 195.661 56 195.461 55.7C 194.761 54.9 194.761 54.8 194.761 52.6C 194.761 52.1 194.761 51.4 194.761 50.6C 194.661 46.5 194.561 43.1 194.461 40.3C 194.161 28.2 194.161 28.2 191.861 28.2L 191.461 28.2C 190.061 28.2 188.861 28.1 187.761 28.1C 184.761 28 182.861 27.9 181.961 28.8ZM 207.561 14.2C 208.961 12.9 211.161 13.1 214.461 13.4C 215.261 13.5 216.261 13.6 217.261 13.6C 217.761 13.6 218.061 14 218.361 14.4C 218.461 14.5 218.561 14.7 218.761 14.8L 219.061 15.1L 218.761 15.4C 216.861 17 214.661 16.9 212.861 16.9C 211.461 16.8 210.461 16.8 209.861 17.5C 209.161 18.3 209.161 20.3 209.961 23.7C 210.261 24.9 211.261 25 212.861 25C 214.361 25 216.161 25 216.961 26.8L 217.061 27L 216.961 27.2C 216.761 27.5 216.161 28.1 215.761 28.1C 215.161 28.2 214.461 28.2 213.761 28.2C 211.161 28.3 209.561 28.5 209.561 31.1C 209.661 33.6 209.661 35.9 209.761 37.9C 210.061 53.5 210.161 53.8 212.761 53.8C 218.461 53.8 218.561 53.8 219.361 54.5C 219.461 54.6 219.661 54.8 219.961 55L 220.261 55.2L 219.961 55.5C 219.861 55.6 219.761 55.8 219.661 56C 219.361 56.5 219.061 57 218.561 57C 217.061 57.1 215.761 57.2 214.561 57.2C 212.661 57.3 211.261 57.4 210.161 57.4C 208.461 57.4 207.561 57.2 206.961 56.6C 206.061 55.8 206.161 54.3 206.261 51.6C 206.261 50.4 206.361 49 206.361 47.3L 206.361 46.9L 206.561 46.9C 206.461 44.3 206.361 41.9 206.261 39.7C 205.561 22.3 205.261 16.4 207.561 14.2Z"/>
</defs>
</svg>
